<?xml version="1.0" encoding="utf-8"?>
<!-- Generator: Adobe Illustrator 23.0.2, SVG Export Plug-In . SVG Version: 6.00 Build 0)  -->
<svg version="1.1" id="圖層_1" xmlns="http://www.w3.org/2000/svg" xmlns:xlink="http://www.w3.org/1999/xlink" x="0px" y="0px"
	 viewBox="0 0 576 512" style="enable-background:new 0 0 576 512;" xml:space="preserve">
<style type="text/css">
	.st0{fill:#FFFFFF;}
	.st1{fill:#F70000;}
</style>
<ellipse class="st0" cx="288" cy="256.2" rx="256" ry="248"/>
<path class="st1" d="M475.7,161.6c-4.5-17-17.8-30.3-34.6-34.9c-30.6-8.2-153.1-8.2-153.1-8.2s-122.5,0-153.1,8.2
	c-16.9,4.5-30.1,17.9-34.6,34.9c-8.2,30.8-8.2,94.9-8.2,94.9s0,64.2,8.2,94.9c4.5,17,17.8,29.8,34.6,34.3
	c30.6,8.2,153.1,8.2,153.1,8.2s122.5,0,153.1-8.2c16.9-4.5,30.1-17.3,34.6-34.3c8.2-30.8,8.2-94.9,8.2-94.9S483.9,192.3,475.7,161.6
	z M247.9,314.7V198.2l102.4,58.3L247.9,314.7L247.9,314.7z"/>
</svg>
